0
SECTION
2
HEADER
9
$ACADVER
1
AC1015
9
$INSUNITS
70
1
9
$MEASUREMENT
70
0
9
$LUNITS
70
2
9
$LUPREC
70
4
9
$INSBASE
10
0
20
0
30
0
0
ENDSEC
0
SECTION
2
TABLES
0
TABLE
2
LTYPE
70
1
0
LTYPE
2
CONTINUOUS
70
0
3
Solid line
72
65
73
0
40
0
0
ENDTAB
0
TABLE
2
LAYER
70
5
0
LAYER
2
PART_OUTLINES
70
0
62
7
6
CONTINUOUS
0
LAYER
2
STOCK_REFERENCE
70
0
62
8
6
CONTINUOUS
0
LAYER
2
MARGIN_REFERENCE
70
0
62
8
6
CONTINUOUS
0
LAYER
2
LABELS
70
0
62
3
6
CONTINUOUS
0
LAYER
2
GRAIN_REFERENCE
70
0
62
5
6
CONTINUOUS
0
ENDTAB
0
TABLE
2
STYLE
70
1
0
STYLE
2
STANDARD
70
0
40
0
41
1
50
0
71
0
42
0.8
3
txt
4

0
ENDTAB
0
ENDSEC
0
SECTION
2
ENTITIES
0
LWPOLYLINE
100
AcDbEntity
8
STOCK_REFERENCE
100
AcDbPolyline
90
4
70
1
38
0
10
0
20
0
10
48
20
0
10
48
20
96
10
0
20
96
0
LWPOLYLINE
100
AcDbEntity
8
MARGIN_REFERENCE
100
AcDbPolyline
90
4
70
1
38
0
10
0.75
20
0.75
10
47.25
20
0.75
10
47.25
20
95.25
10
0.75
20
95.25
0
LWPOLYLINE
100
AcDbEntity
8
PART_OUTLINES
100
AcDbPolyline
90
4
70
1
38
0
10
0.75
20
0.75
10
21.875
20
0.75
10
21.875
20
62.5625
10
0.75
20
62.5625
0
TEXT
100
AcDbEntity
8
LABELS
100
AcDbText
10
1.25
20
31.65625
30
0
40
1
1
M08
50
0
7
STANDARD
100
AcDbText
0
TEXT
100
AcDbEntity
8
LABELS
100
AcDbText
10
1.25
20
30.45625
30
0
40
0.7
1
21 1/8 x 61 13/16 in
50
0
7
STANDARD
100
AcDbText
0
LWPOLYLINE
100
AcDbEntity
8
PART_OUTLINES
100
AcDbPolyline
90
4
70
1
38
0
10
22.375
20
0.75
10
43.5
20
0.75
10
43.5
20
62.5625
10
22.375
20
62.5625
0
TEXT
100
AcDbEntity
8
LABELS
100
AcDbText
10
22.875
20
31.65625
30
0
40
1
1
M09
50
0
7
STANDARD
100
AcDbText
0
TEXT
100
AcDbEntity
8
LABELS
100
AcDbText
10
22.875
20
30.45625
30
0
40
0.7
1
21 1/8 x 61 13/16 in
50
0
7
STANDARD
100
AcDbText
0
LWPOLYLINE
100
AcDbEntity
8
PART_OUTLINES
100
AcDbPolyline
90
4
70
1
38
0
10
0.75
20
63.0625
10
16.5
20
63.0625
10
16.5
20
91.4375
10
0.75
20
91.4375
0
TEXT
100
AcDbEntity
8
LABELS
100
AcDbText
10
1.25
20
77.25
30
0
40
1
1
L09
50
0
7
STANDARD
100
AcDbText
0
TEXT
100
AcDbEntity
8
LABELS
100
AcDbText
10
1.25
20
76.05
30
0
40
0.7
1
15 3/4 x 28 3/8 in
50
0
7
STANDARD
100
AcDbText
0
TEXT
100
AcDbEntity
8
LABELS
100
AcDbText
10
0
20
101
30
0
40
1.2
1
S05 | 3/4 in stock | 48 x 96 in | 3 parts
50
0
7
STANDARD
100
AcDbText
0
TEXT
100
AcDbEntity
8
LABELS
100
AcDbText
10
0
20
99
30
0
40
1
1
NOMINAL PLANNING OUTLINES - NOT CNC-READY
50
0
7
STANDARD
100
AcDbText
0
TEXT
100
AcDbEntity
8
LABELS
100
AcDbText
10
0
20
97.4
30
0
40
0.8
1
INCHES / 1:1. Only PART_OUTLINES are nominal part boundaries.
50
0
7
STANDARD
100
AcDbText
0
LINE
100
AcDbEntity
8
GRAIN_REFERENCE
100
AcDbLine
10
50
20
82
30
0
11
50
21
92
31
0
0
LINE
100
AcDbEntity
8
GRAIN_REFERENCE
100
AcDbLine
10
49.4
20
91
30
0
11
50
21
92
31
0
0
LINE
100
AcDbEntity
8
GRAIN_REFERENCE
100
AcDbLine
10
50.6
20
91
30
0
11
50
21
92
31
0
0
TEXT
100
AcDbEntity
8
LABELS
100
AcDbText
10
52
20
92
30
0
40
0.8
1
GRAIN +Y / STOCK LENGTH
50
0
7
STANDARD
100
AcDbText
0
TEXT
100
AcDbEntity
8
LABELS
100
AcDbText
10
52
20
90
30
0
40
0.8
1
3/4 in edge margin; 1/2 in gap
50
0
7
STANDARD
100
AcDbText
0
TEXT
100
AcDbEntity
8
LABELS
100
AcDbText
10
52
20
86
30
0
40
0.9
1
M08  Door panel 5.1
50
0
7
STANDARD
100
AcDbText
0
TEXT
100
AcDbEntity
8
LABELS
100
AcDbText
10
52
20
84.5
30
0
40
0.8
1
21 1/8 x 61 13/16 in; finish 3/4 in
50
0
7
STANDARD
100
AcDbText
0
TEXT
100
AcDbEntity
8
LABELS
100
AcDbText
10
52
20
83
30
0
40
0.7
1
X 0.75 / Y 0.75 in
50
0
7
STANDARD
100
AcDbText
0
TEXT
100
AcDbEntity
8
LABELS
100
AcDbText
10
52
20
81
30
0
40
0.9
1
M09  Door panel 5.2
50
0
7
STANDARD
100
AcDbText
0
TEXT
100
AcDbEntity
8
LABELS
100
AcDbText
10
52
20
79.5
30
0
40
0.8
1
21 1/8 x 61 13/16 in; finish 3/4 in
50
0
7
STANDARD
100
AcDbText
0
TEXT
100
AcDbEntity
8
LABELS
100
AcDbText
10
52
20
78
30
0
40
0.7
1
X 22.375 / Y 0.75 in
50
0
7
STANDARD
100
AcDbText
0
TEXT
100
AcDbEntity
8
LABELS
100
AcDbText
10
52
20
76
30
0
40
0.9
1
L09  Adjustable shelf 2
50
0
7
STANDARD
100
AcDbText
0
TEXT
100
AcDbEntity
8
LABELS
100
AcDbText
10
52
20
74.5
30
0
40
0.8
1
15 3/4 x 28 3/8 in; finish 3/4 in
50
0
7
STANDARD
100
AcDbText
0
TEXT
100
AcDbEntity
8
LABELS
100
AcDbText
10
52
20
73
30
0
40
0.7
1
X 0.75 / Y 63.0625 in
50
0
7
STANDARD
100
AcDbText
0
TEXT
100
AcDbEntity
8
LABELS
100
AcDbText
10
0
20
-2
30
0
40
0.8
1
M07 on S02: mill the 3/4 in stock blank to 5/8 in finished thickness.
50
0
7
STANDARD
100
AcDbText
0
TEXT
100
AcDbEntity
8
LABELS
100
AcDbText
10
0
20
-3.5
30
0
40
0.8
1
Shelf/back fit included; finalize joinery, slides and measured stock before cutting.
50
0
7
STANDARD
100
AcDbText
0
TEXT
100
AcDbEntity
8
LABELS
100
AcDbText
10
0
20
-5
30
0
40
0.8
1
No cutter compensation, holes, pockets or G-code. Reference layers are NOT cut paths.
50
0
7
STANDARD
100
AcDbText
0
ENDSEC
0
EOF
