<?xml version="1.0" encoding="UTF-8"?>
<svg xmlns="http://www.w3.org/2000/svg" width="52in" height="62in" viewBox="-2 -8 52 62">
<title>S07 | 1/2 in stock | 24 x 48 in | 4 parts - NOMINAL PLANNING OUTLINES - NOT CNC-READY</title>
<desc>Full-scale inches: one SVG unit equals one inch. Stock lower-left origin, +Y along grain. Only PART_OUTLINES contains nominal part boundaries.</desc>
<rect x="-2" y="-8" width="100%" height="100%" fill="white"/>
<g font-family="Arial, sans-serif" fill="#152b42">
<text x="0" y="-5.6" font-size="1.5" font-weight="bold">S07 | 1/2 in stock | 24 x 48 in | 4 parts</text>
<text x="0" y="-3.5" font-size="0.95" fill="#943518">NOMINAL PLANNING OUTLINES - NOT CNC-READY</text>
<text x="0" y="-1.6" font-size="0.8">Full scale: 1 unit = 1 inch. Sheet border and notes are reference only.</text>
<g id="STOCK_REFERENCE"><rect x="0" y="0" width="24" height="48" fill="none" stroke="#152b42" stroke-width="0.12"/></g>
<g id="MARGIN_REFERENCE"><rect x="0.75" y="0.75" width="22.5" height="46.5" fill="none" stroke="#888" stroke-width="0.06" stroke-dasharray="0.5 0.35"/></g>
<g id="PART_OUTLINES" stroke="#152b42" stroke-width="0.08">
<rect id="L13" x="0.75" y="20.75" width="8.0" height="26.5" fill="#e6efdf"/>
<rect id="L14" x="9.25" y="20.75" width="8.0" height="26.5" fill="#e6efdf"/>
<rect id="L11" x="0.75" y="6.25" width="8.0" height="14.0" fill="#e6efdf"/>
<rect id="L12" x="9.25" y="6.25" width="8.0" height="14.0" fill="#e6efdf"/>
</g><g id="LABELS" text-anchor="middle">
<g><text x="4.75" y="33.7" font-size="1.2" font-weight="bold">L13</text><text x="4.75" y="35.1" font-size="0.72">8 x 26 1/2 in</text></g>
<g><text x="13.25" y="33.7" font-size="1.2" font-weight="bold">L14</text><text x="13.25" y="35.1" font-size="0.72">8 x 26 1/2 in</text></g>
<g><text x="4.75" y="12.95" font-size="1.2" font-weight="bold">L11</text><text x="4.75" y="14.35" font-size="0.72">8 x 14 in</text></g>
<g><text x="13.25" y="12.95" font-size="1.2" font-weight="bold">L12</text><text x="13.25" y="14.35" font-size="0.72">8 x 14 in</text></g>
</g><g id="GRAIN_REFERENCE" stroke="#152b42" stroke-width="0.12" fill="none">
<path d="M 25.5 14 V 4 M 24.9 5 L 25.5 4 L 26.1 5"/>
</g>
<text x="28" y="4" font-size="0.95" font-weight="bold">GRAIN +Y / STOCK LENGTH</text>
<text x="28" y="6" font-size="0.85">3/4 in edge margin; 1/2 in part gap</text>
<text x="28" y="8" font-size="0.8">Dimensions: width x length</text>
<text x="28" y="10" font-size="0.8">X/Y measured from stock lower-left</text>
<text x="28" y="14" font-size="0.95" font-weight="bold">L13  Drawer back</text>
<text x="28" y="15.6" font-size="0.85">8 x 26 1/2 in; finish 1/2 in</text>
<text x="28" y="17" font-size="0.78">X 0.75 / Y 0.75 in</text>
<text x="28" y="20" font-size="0.95" font-weight="bold">L14  Drawer inner front</text>
<text x="28" y="21.6" font-size="0.85">8 x 26 1/2 in; finish 1/2 in</text>
<text x="28" y="23" font-size="0.78">X 9.25 / Y 0.75 in</text>
<text x="28" y="26" font-size="0.95" font-weight="bold">L11  Drawer left side</text>
<text x="28" y="27.6" font-size="0.85">8 x 14 in; finish 1/2 in</text>
<text x="28" y="29" font-size="0.78">X 0.75 / Y 27.75 in</text>
<text x="28" y="32" font-size="0.95" font-weight="bold">L12  Drawer right side</text>
<text x="28" y="33.6" font-size="0.85">8 x 14 in; finish 1/2 in</text>
<text x="28" y="35" font-size="0.78">X 9.25 / Y 27.75 in</text>
<text x="0" y="49.7" font-size="0.8">M07 on S02: mill the 3/4 in stock blank to 5/8 in finished thickness.</text>
<text x="0" y="51.3" font-size="0.75">Finalize joinery, shelf clearance, slides and measured stock thickness before cutting.</text>
<text x="0" y="52.9" font-size="0.75">No cutter compensation, holes, pockets or G-code. Confirm cutter, workholding and machine/post setup.</text>
</g></svg>
