0
SECTION
2
HEADER
9
$ACADVER
1
AC1015
9
$INSUNITS
70
1
9
$MEASUREMENT
70
0
9
$LUNITS
70
2
9
$LUPREC
70
4
9
$INSBASE
10
0
20
0
30
0
0
ENDSEC
0
SECTION
2
TABLES
0
TABLE
2
LTYPE
70
1
0
LTYPE
2
CONTINUOUS
70
0
3
Solid line
72
65
73
0
40
0
0
ENDTAB
0
TABLE
2
LAYER
70
5
0
LAYER
2
PART_OUTLINES
70
0
62
7
6
CONTINUOUS
0
LAYER
2
STOCK_REFERENCE
70
0
62
8
6
CONTINUOUS
0
LAYER
2
MARGIN_REFERENCE
70
0
62
8
6
CONTINUOUS
0
LAYER
2
LABELS
70
0
62
3
6
CONTINUOUS
0
LAYER
2
GRAIN_REFERENCE
70
0
62
5
6
CONTINUOUS
0
ENDTAB
0
TABLE
2
STYLE
70
1
0
STYLE
2
STANDARD
70
0
40
0
41
1
50
0
71
0
42
0.8
3
txt
4

0
ENDTAB
0
ENDSEC
0
SECTION
2
ENTITIES
0
LWPOLYLINE
100
AcDbEntity
8
STOCK_REFERENCE
100
AcDbPolyline
90
4
70
1
38
0
10
0
20
0
10
24
20
0
10
24
20
48
10
0
20
48
0
LWPOLYLINE
100
AcDbEntity
8
MARGIN_REFERENCE
100
AcDbPolyline
90
4
70
1
38
0
10
0.75
20
0.75
10
23.25
20
0.75
10
23.25
20
47.25
10
0.75
20
47.25
0
LWPOLYLINE
100
AcDbEntity
8
PART_OUTLINES
100
AcDbPolyline
90
4
70
1
38
0
10
0.75
20
0.75
10
8.75
20
0.75
10
8.75
20
27.25
10
0.75
20
27.25
0
TEXT
100
AcDbEntity
8
LABELS
100
AcDbText
10
1.25
20
14
30
0
40
1
1
L13
50
0
7
STANDARD
100
AcDbText
0
TEXT
100
AcDbEntity
8
LABELS
100
AcDbText
10
1.25
20
12.8
30
0
40
0.7
1
8 x 26 1/2 in
50
0
7
STANDARD
100
AcDbText
0
LWPOLYLINE
100
AcDbEntity
8
PART_OUTLINES
100
AcDbPolyline
90
4
70
1
38
0
10
9.25
20
0.75
10
17.25
20
0.75
10
17.25
20
27.25
10
9.25
20
27.25
0
TEXT
100
AcDbEntity
8
LABELS
100
AcDbText
10
9.75
20
14
30
0
40
1
1
L14
50
0
7
STANDARD
100
AcDbText
0
TEXT
100
AcDbEntity
8
LABELS
100
AcDbText
10
9.75
20
12.8
30
0
40
0.7
1
8 x 26 1/2 in
50
0
7
STANDARD
100
AcDbText
0
LWPOLYLINE
100
AcDbEntity
8
PART_OUTLINES
100
AcDbPolyline
90
4
70
1
38
0
10
0.75
20
27.75
10
8.75
20
27.75
10
8.75
20
41.75
10
0.75
20
41.75
0
TEXT
100
AcDbEntity
8
LABELS
100
AcDbText
10
1.25
20
34.75
30
0
40
1
1
L11
50
0
7
STANDARD
100
AcDbText
0
TEXT
100
AcDbEntity
8
LABELS
100
AcDbText
10
1.25
20
33.55
30
0
40
0.7
1
8 x 14 in
50
0
7
STANDARD
100
AcDbText
0
LWPOLYLINE
100
AcDbEntity
8
PART_OUTLINES
100
AcDbPolyline
90
4
70
1
38
0
10
9.25
20
27.75
10
17.25
20
27.75
10
17.25
20
41.75
10
9.25
20
41.75
0
TEXT
100
AcDbEntity
8
LABELS
100
AcDbText
10
9.75
20
34.75
30
0
40
1
1
L12
50
0
7
STANDARD
100
AcDbText
0
TEXT
100
AcDbEntity
8
LABELS
100
AcDbText
10
9.75
20
33.55
30
0
40
0.7
1
8 x 14 in
50
0
7
STANDARD
100
AcDbText
0
TEXT
100
AcDbEntity
8
LABELS
100
AcDbText
10
0
20
53
30
0
40
1.2
1
S07 | 1/2 in stock | 24 x 48 in | 4 parts
50
0
7
STANDARD
100
AcDbText
0
TEXT
100
AcDbEntity
8
LABELS
100
AcDbText
10
0
20
51
30
0
40
1
1
NOMINAL PLANNING OUTLINES - NOT CNC-READY
50
0
7
STANDARD
100
AcDbText
0
TEXT
100
AcDbEntity
8
LABELS
100
AcDbText
10
0
20
49.4
30
0
40
0.8
1
INCHES / 1:1. Only PART_OUTLINES are nominal part boundaries.
50
0
7
STANDARD
100
AcDbText
0
LINE
100
AcDbEntity
8
GRAIN_REFERENCE
100
AcDbLine
10
26
20
34
30
0
11
26
21
44
31
0
0
LINE
100
AcDbEntity
8
GRAIN_REFERENCE
100
AcDbLine
10
25.4
20
43
30
0
11
26
21
44
31
0
0
LINE
100
AcDbEntity
8
GRAIN_REFERENCE
100
AcDbLine
10
26.6
20
43
30
0
11
26
21
44
31
0
0
TEXT
100
AcDbEntity
8
LABELS
100
AcDbText
10
28
20
44
30
0
40
0.8
1
GRAIN +Y / STOCK LENGTH
50
0
7
STANDARD
100
AcDbText
0
TEXT
100
AcDbEntity
8
LABELS
100
AcDbText
10
28
20
42
30
0
40
0.8
1
3/4 in edge margin; 1/2 in gap
50
0
7
STANDARD
100
AcDbText
0
TEXT
100
AcDbEntity
8
LABELS
100
AcDbText
10
28
20
38
30
0
40
0.9
1
L13  Drawer back
50
0
7
STANDARD
100
AcDbText
0
TEXT
100
AcDbEntity
8
LABELS
100
AcDbText
10
28
20
36.5
30
0
40
0.8
1
8 x 26 1/2 in; finish 1/2 in
50
0
7
STANDARD
100
AcDbText
0
TEXT
100
AcDbEntity
8
LABELS
100
AcDbText
10
28
20
35
30
0
40
0.7
1
X 0.75 / Y 0.75 in
50
0
7
STANDARD
100
AcDbText
0
TEXT
100
AcDbEntity
8
LABELS
100
AcDbText
10
28
20
33
30
0
40
0.9
1
L14  Drawer inner front
50
0
7
STANDARD
100
AcDbText
0
TEXT
100
AcDbEntity
8
LABELS
100
AcDbText
10
28
20
31.5
30
0
40
0.8
1
8 x 26 1/2 in; finish 1/2 in
50
0
7
STANDARD
100
AcDbText
0
TEXT
100
AcDbEntity
8
LABELS
100
AcDbText
10
28
20
30
30
0
40
0.7
1
X 9.25 / Y 0.75 in
50
0
7
STANDARD
100
AcDbText
0
TEXT
100
AcDbEntity
8
LABELS
100
AcDbText
10
28
20
28
30
0
40
0.9
1
L11  Drawer left side
50
0
7
STANDARD
100
AcDbText
0
TEXT
100
AcDbEntity
8
LABELS
100
AcDbText
10
28
20
26.5
30
0
40
0.8
1
8 x 14 in; finish 1/2 in
50
0
7
STANDARD
100
AcDbText
0
TEXT
100
AcDbEntity
8
LABELS
100
AcDbText
10
28
20
25
30
0
40
0.7
1
X 0.75 / Y 27.75 in
50
0
7
STANDARD
100
AcDbText
0
TEXT
100
AcDbEntity
8
LABELS
100
AcDbText
10
28
20
23
30
0
40
0.9
1
L12  Drawer right side
50
0
7
STANDARD
100
AcDbText
0
TEXT
100
AcDbEntity
8
LABELS
100
AcDbText
10
28
20
21.5
30
0
40
0.8
1
8 x 14 in; finish 1/2 in
50
0
7
STANDARD
100
AcDbText
0
TEXT
100
AcDbEntity
8
LABELS
100
AcDbText
10
28
20
20
30
0
40
0.7
1
X 9.25 / Y 27.75 in
50
0
7
STANDARD
100
AcDbText
0
TEXT
100
AcDbEntity
8
LABELS
100
AcDbText
10
0
20
-2
30
0
40
0.8
1
M07 on S02: mill the 3/4 in stock blank to 5/8 in finished thickness.
50
0
7
STANDARD
100
AcDbText
0
TEXT
100
AcDbEntity
8
LABELS
100
AcDbText
10
0
20
-3.5
30
0
40
0.8
1
Finalize joinery, shelf clearance, slides and measured stock thickness before cutting.
50
0
7
STANDARD
100
AcDbText
0
TEXT
100
AcDbEntity
8
LABELS
100
AcDbText
10
0
20
-5
30
0
40
0.8
1
No cutter compensation, holes, pockets or G-code. Reference layers are NOT cut paths.
50
0
7
STANDARD
100
AcDbText
0
ENDSEC
0
EOF
