0
SECTION
2
HEADER
9
$ACADVER
1
AC1015
9
$INSUNITS
70
1
9
$MEASUREMENT
70
0
9
$LUNITS
70
2
9
$LUPREC
70
4
9
$INSBASE
10
0
20
0
30
0
0
ENDSEC
0
SECTION
2
TABLES
0
TABLE
2
LTYPE
70
1
0
LTYPE
2
CONTINUOUS
70
0
3
Solid line
72
65
73
0
40
0
0
ENDTAB
0
TABLE
2
LAYER
70
5
0
LAYER
2
PART_OUTLINES
70
0
62
7
6
CONTINUOUS
0
LAYER
2
STOCK_REFERENCE
70
0
62
8
6
CONTINUOUS
0
LAYER
2
MARGIN_REFERENCE
70
0
62
8
6
CONTINUOUS
0
LAYER
2
LABELS
70
0
62
3
6
CONTINUOUS
0
LAYER
2
GRAIN_REFERENCE
70
0
62
5
6
CONTINUOUS
0
ENDTAB
0
TABLE
2
STYLE
70
1
0
STYLE
2
STANDARD
70
0
40
0
41
1
50
0
71
0
42
0.8
3
txt
4

0
ENDTAB
0
ENDSEC
0
SECTION
2
ENTITIES
0
LWPOLYLINE
100
AcDbEntity
8
STOCK_REFERENCE
100
AcDbPolyline
90
4
70
1
38
0
10
0
20
0
10
48
20
0
10
48
20
96
10
0
20
96
0
LWPOLYLINE
100
AcDbEntity
8
MARGIN_REFERENCE
100
AcDbPolyline
90
4
70
1
38
0
10
0.75
20
0.75
10
47.25
20
0.75
10
47.25
20
95.25
10
0.75
20
95.25
0
LWPOLYLINE
100
AcDbEntity
8
PART_OUTLINES
100
AcDbPolyline
90
4
70
1
38
0
10
0.75
20
0.75
10
29.25
20
0.75
10
29.25
20
60.75
10
0.75
20
60.75
0
TEXT
100
AcDbEntity
8
LABELS
100
AcDbText
10
1.25
20
30.75
30
0
40
1
1
L06
50
0
7
STANDARD
100
AcDbText
0
TEXT
100
AcDbEntity
8
LABELS
100
AcDbText
10
1.25
20
29.55
30
0
40
0.7
1
28 1/2 x 60 in
50
0
7
STANDARD
100
AcDbText
0
LWPOLYLINE
100
AcDbEntity
8
PART_OUTLINES
100
AcDbPolyline
90
4
70
1
38
0
10
29.75
20
0.75
10
43.75
20
0.75
10
43.75
20
28.25
10
29.75
20
28.25
0
TEXT
100
AcDbEntity
8
LABELS
100
AcDbText
10
30.25
20
14.5
30
0
40
1
1
L15
50
0
7
STANDARD
100
AcDbText
0
TEXT
100
AcDbEntity
8
LABELS
100
AcDbText
10
30.25
20
13.3
30
0
40
0.7
1
14 x 27 1/2 in
50
0
7
STANDARD
100
AcDbText
0
TEXT
100
AcDbEntity
8
LABELS
100
AcDbText
10
0
20
101
30
0
40
1.2
1
S08 | 1/4 in stock | 48 x 96 in | 2 parts
50
0
7
STANDARD
100
AcDbText
0
TEXT
100
AcDbEntity
8
LABELS
100
AcDbText
10
0
20
99
30
0
40
1
1
NOMINAL PLANNING OUTLINES - NOT CNC-READY
50
0
7
STANDARD
100
AcDbText
0
TEXT
100
AcDbEntity
8
LABELS
100
AcDbText
10
0
20
97.4
30
0
40
0.8
1
INCHES / 1:1. Only PART_OUTLINES are nominal part boundaries.
50
0
7
STANDARD
100
AcDbText
0
LINE
100
AcDbEntity
8
GRAIN_REFERENCE
100
AcDbLine
10
50
20
82
30
0
11
50
21
92
31
0
0
LINE
100
AcDbEntity
8
GRAIN_REFERENCE
100
AcDbLine
10
49.4
20
91
30
0
11
50
21
92
31
0
0
LINE
100
AcDbEntity
8
GRAIN_REFERENCE
100
AcDbLine
10
50.6
20
91
30
0
11
50
21
92
31
0
0
TEXT
100
AcDbEntity
8
LABELS
100
AcDbText
10
52
20
92
30
0
40
0.8
1
GRAIN +Y / STOCK LENGTH
50
0
7
STANDARD
100
AcDbText
0
TEXT
100
AcDbEntity
8
LABELS
100
AcDbText
10
52
20
90
30
0
40
0.8
1
3/4 in edge margin; 1/2 in gap
50
0
7
STANDARD
100
AcDbText
0
TEXT
100
AcDbEntity
8
LABELS
100
AcDbText
10
52
20
86
30
0
40
0.9
1
L06  Bookcase back
50
0
7
STANDARD
100
AcDbText
0
TEXT
100
AcDbEntity
8
LABELS
100
AcDbText
10
52
20
84.5
30
0
40
0.8
1
28 1/2 x 60 in; finish 1/4 in
50
0
7
STANDARD
100
AcDbText
0
TEXT
100
AcDbEntity
8
LABELS
100
AcDbText
10
52
20
83
30
0
40
0.7
1
X 0.75 / Y 0.75 in
50
0
7
STANDARD
100
AcDbText
0
TEXT
100
AcDbEntity
8
LABELS
100
AcDbText
10
52
20
81
30
0
40
0.9
1
L15  Drawer bottom
50
0
7
STANDARD
100
AcDbText
0
TEXT
100
AcDbEntity
8
LABELS
100
AcDbText
10
52
20
79.5
30
0
40
0.8
1
14 x 27 1/2 in; finish 1/4 in
50
0
7
STANDARD
100
AcDbText
0
TEXT
100
AcDbEntity
8
LABELS
100
AcDbText
10
52
20
78
30
0
40
0.7
1
X 29.75 / Y 0.75 in
50
0
7
STANDARD
100
AcDbText
0
TEXT
100
AcDbEntity
8
LABELS
100
AcDbText
10
0
20
-2
30
0
40
0.8
1
M07 on S02: mill the 3/4 in stock blank to 5/8 in finished thickness.
50
0
7
STANDARD
100
AcDbText
0
TEXT
100
AcDbEntity
8
LABELS
100
AcDbText
10
0
20
-3.5
30
0
40
0.8
1
Finalize joinery, shelf clearance, slides and measured stock thickness before cutting.
50
0
7
STANDARD
100
AcDbText
0
TEXT
100
AcDbEntity
8
LABELS
100
AcDbText
10
0
20
-5
30
0
40
0.8
1
No cutter compensation, holes, pockets or G-code. Reference layers are NOT cut paths.
50
0
7
STANDARD
100
AcDbText
0
ENDSEC
0
EOF
